<svg width="97" height="97" viewBox="0 0 97 97" fill="none" xmlns="http://www.w3.org/2000/svg">
<g clip-path="url(#clip0_425_2)">
<path d="M76.3877 71.3038C48.391 71.3038 25.6971 48.6115 25.6971 20.6132C25.6971 13.2718 27.2718 6.30179 30.0816 0.00170898C12.3585 7.90202 0.00231934 25.6598 0.00231934 46.3122C0.00231934 74.3061 22.6993 97 50.6916 97C71.3441 97 89.1003 84.6422 96.9979 66.9224C90.7005 69.729 83.7289 71.3038 76.3877 71.3038Z" fill="#E4E2DC"/>
<path d="M25.3471 20.6132C25.3471 48.8048 48.1977 71.6538 76.3877 71.6538C83.4546 71.6538 90.1816 70.2044 96.3003 67.6075C88.2785 84.7618 70.8777 96.65 50.6916 96.65C22.8926 96.65 0.352319 74.1128 0.352319 46.3122C0.352319 26.1262 12.2389 8.72399 29.3961 0.699521C26.7964 6.82048 25.3471 13.5462 25.3471 20.6132Z" stroke="#1F1717" stroke-opacity="0.86" stroke-width="0.7"/>
<path d="M58.7739 83.8646C73.6459 83.8646 86.9965 77.434 96.264 67.2268C90.1579 69.835 83.447 71.3021 76.3875 71.3021C48.3908 71.3021 25.6969 48.6098 25.6969 20.6115C25.6969 13.2701 27.2715 6.30008 30.0814 0C23.0917 3.11906 16.9583 7.78544 12.066 13.5414C9.51993 19.5823 8.08459 26.2068 8.08459 33.1768C8.08459 61.1693 30.78 83.8646 58.7739 83.8646Z" fill="#F6F4EF"/>
<path d="M29.3956 0.698451C26.796 6.81923 25.3469 13.5447 25.3469 20.6115C25.3469 48.8031 48.1975 71.6521 76.3875 71.6521C82.9266 71.6521 89.1686 70.402 94.9124 68.1575C85.7667 77.6163 72.9681 83.5146 58.7739 83.5146C30.9733 83.5146 8.43459 60.976 8.43459 33.1768C8.43459 26.2745 9.85199 19.7133 12.3676 13.727C17.0267 8.25706 22.8148 3.78136 29.3956 0.698451Z" stroke="#1F1717" stroke-opacity="0.86" stroke-width="0.7"/>
<path d="M9.66703 64.7927C9.66703 65.3377 9.22526 65.7794 8.6803 65.7794C8.13535 65.7794 7.69358 65.3377 7.69358 64.7927C7.69358 64.2478 8.13535 63.806 8.6803 63.806C9.22526 63.806 9.66703 64.2478 9.66703 64.7927Z" fill="#C6C3BD" stroke="black" stroke-width="0.3"/>
<path d="M16.2353 71.9919C16.2353 72.7461 15.6239 73.3575 14.8697 73.3575C14.1155 73.3575 13.5041 72.7461 13.5041 71.9919C13.5041 71.2377 14.1155 70.6263 14.8697 70.6263C15.6239 70.6263 16.2353 71.2377 16.2353 71.9919Z" fill="#C6C3BD" stroke="black" stroke-width="0.3"/>
<path d="M9.16062 49.2585C9.16062 49.8728 8.66259 50.3708 8.04825 50.3708C7.43391 50.3708 6.93589 49.8728 6.93589 49.2585C6.93589 48.6441 7.43391 48.1461 8.04825 48.1461C8.66259 48.1461 9.16062 48.6441 9.16062 49.2585Z" fill="#C6C3BD" stroke="black" stroke-width="0.3"/>
<path d="M22.2947 50.8953C22.2947 52.556 20.9484 53.9022 19.2877 53.9022C17.627 53.9022 16.2807 52.556 16.2807 50.8953C16.2807 49.2345 17.627 47.8883 19.2877 47.8883C20.9484 47.8883 22.2947 49.2345 22.2947 50.8953Z" fill="#C6C3BD" stroke="black" stroke-width="0.3"/>
<path d="M38.2107 80.5804C38.2107 80.9161 37.9386 81.1881 37.603 81.1881C37.2674 81.1881 36.9953 80.9161 36.9953 80.5804C36.9953 80.2448 37.2674 79.9728 37.603 79.9728C37.9386 79.9728 38.2107 80.2448 38.2107 80.5804Z" fill="#C6C3BD" stroke="black" stroke-width="0.3"/>
<path d="M46.7979 74.265C46.7979 74.8794 46.2999 75.3774 45.6856 75.3774C45.0712 75.3774 44.5732 74.8794 44.5732 74.265C44.5732 73.6507 45.0712 73.1527 45.6856 73.1527C46.2999 73.1527 46.7979 73.6507 46.7979 74.265Z" fill="#C6C3BD" stroke="black" stroke-width="0.3"/>
<path d="M71.2983 88.6628C71.2983 89.2771 70.8003 89.7751 70.1859 89.7751C69.5716 89.7751 69.0736 89.2771 69.0736 88.6628C69.0736 88.0484 69.5716 87.5504 70.1859 87.5504C70.8003 87.5504 71.2983 88.0484 71.2983 88.6628Z" fill="#C6C3BD" stroke="black" stroke-width="0.3"/>
<path d="M70.2907 79.6907C70.2907 81.2124 69.0571 82.446 67.5354 82.446C66.0137 82.446 64.7801 81.2124 64.7801 79.6907C64.7801 78.169 66.0137 76.9354 67.5354 76.9354C69.0571 76.9354 70.2907 78.169 70.2907 79.6907Z" fill="#C6C3BD" stroke="black" stroke-width="0.3"/>
</g>
<defs>
<clipPath id="clip0_425_2">
<rect width="97" height="97" fill="white"/>
</clipPath>
</defs>
</svg>
