<svg width="396" height="520" viewBox="0 0 396 520" fill="none" xmlns="http://www.w3.org/2000/svg">
<rect x="112.69" y="504.055" width="78" height="6" rx="1" transform="rotate(-53.271 112.69 504.055)" fill="#F94144"/>
<rect x="102.804" y="460.618" width="78" height="6" rx="1" transform="rotate(17.3471 102.804 460.618)" fill="#F94144"/>
<path d="M386.24 65.9259C386.24 73.6989 379.945 80 372.18 80H344.06C336.295 80 330 73.6989 330 65.9259C330 58.1531 336.295 51.8519 344.06 51.8519H344.704C346.496 46.142 351.825 42 358.12 42C364.416 42 369.744 46.142 371.536 51.8519H372.18C379.945 51.8517 386.24 58.1529 386.24 65.9259Z" fill="#AFF2D8"/>
<path d="M372.074 80H370.303H367.116C374.189 80 379.918 74.2769 379.865 67.2372C379.813 60.2531 373.986 54.6667 366.956 54.6667H363.171H359.984C359.134 54.6667 358.459 53.923 358.582 53.0547C358.681 52.3537 359.32 51.8518 360.033 51.8518H361.797C362.819 51.8518 363.515 50.8047 363.095 49.8789C361.454 46.2623 358.241 43.5024 354.32 42.4574C355.466 42.1602 356.668 42 357.907 42C364.251 42 369.62 46.142 371.425 51.8518H372.074C379.898 51.8518 386.24 58.1529 386.24 65.926C386.24 73.6989 379.898 80 372.074 80Z" fill="#4D908E"/>
<path d="M2 103.946L5.09397 105L11 94.556L6.43356 93L2 103.946Z" fill="#FFB7B7"/>
<path d="M1.44865 103L7.37443 105.054L7.37468 105.054C8.37617 105.401 9.18881 106.105 9.63385 107.011C10.0789 107.917 10.1199 108.951 9.74781 109.886L9.70221 110L0 106.637L1.44865 103Z" fill="#2F2E41"/>
<path d="M31.0005 107L33.7107 107L35 95L31 95.0003L31.0005 107Z" fill="#FFB7B7"/>
<path d="M31 106L36.4968 106C37.4258 106 38.317 106.408 38.9739 107.135C39.6308 107.861 39.9999 108.846 40 109.874V110L31.0002 110L31 106Z" fill="#2F2E41"/>
<path d="M16.5427 24.0159L17.5529 22L26.1399 26.2839L25.8874 28.0478L27.529 30.1898C27.529 30.1898 30.3072 31.7018 29.802 36.7417L29.2969 41.5295L28.6655 47.7034L33.0853 62.949L35.3584 83.1085L37 99.3621L29.0444 98.9841L21.7201 72.5247L8.8396 101L0 98.7321L12.1229 70.5088L13.6382 58.6651C13.6382 58.6651 12.628 52.3652 17.4266 48.0813L16.6689 45.8134V43.0187L14.1433 29.6858L16.5427 24.0159Z" fill="#2F2E41"/>
<path opacity="0.2" d="M16.3671 52.7999L16.0791 52.8811L21.6814 72.7439L21.9695 72.6627L16.3671 52.7999Z" fill="black"/>
<path d="M17 49H29V48H17V49Z" fill="#3F3D56"/>
<path d="M29.5 50C29.7761 50 30 49.3284 30 48.5C30 47.6716 29.7761 47 29.5 47C29.2239 47 29 47.6716 29 48.5C29 49.3284 29.2239 50 29.5 50Z" fill="#3F3D56"/>
<path d="M29.666 17.6891C31.4642 14.3997 30.2553 10.2754 26.9658 8.4772C23.6764 6.67903 19.5521 7.88793 17.7539 11.1774C15.9558 14.4668 17.1647 18.5911 20.4541 20.3893C23.7435 22.1875 27.8679 20.9785 29.666 17.6891Z" fill="#FFB7B7"/>
<path d="M13 12C16.3137 12 19 9.3137 19 6C19 2.68629 16.3137 0 13 0C9.68629 0 7 2.68629 7 6C7 9.3137 9.68629 12 13 12Z" fill="#2F2E41"/>
<path d="M6.25036 6C6.0128 6.72156 5.94327 7.47982 6.04618 8.2269C6.14908 8.97398 6.42217 9.69365 6.84822 10.3405C7.27427 10.9873 7.84403 11.5473 8.5215 11.985C9.19898 12.4227 9.96947 12.7286 10.7843 12.8835C11.5992 13.0384 12.4407 13.0388 13.2558 12.8848C14.0708 12.7308 14.8417 12.4257 15.5197 11.9887C16.1978 11.5517 16.7683 10.9924 17.1952 10.346C17.6221 9.69966 17.8961 8.98027 18 8.2333C17.5685 9.5434 16.6078 10.6589 15.3088 11.3582C14.0097 12.0576 12.4673 12.2897 10.9878 12.0085C9.50823 11.7273 8.19975 10.9533 7.32213 9.84018C6.44451 8.72709 6.06194 7.35631 6.25036 6Z" fill="#2F2E41"/>
<path d="M29.6673 12.654C29.8374 14.2937 29.5085 15.949 28.7315 17.3634C27.9545 18.7779 26.7727 19.8725 25.3694 20.4776C23.966 21.0827 22.4194 21.1646 20.9692 20.7105C19.519 20.2564 18.2462 19.2918 17.348 17.9661C16.4498 16.6403 15.9763 15.0275 16.0009 13.3775C16.0256 11.7275 16.5469 10.1324 17.4843 8.83948C18.4216 7.54654 19.7226 6.62791 21.1856 6.22592C22.6485 5.82394 24.1919 5.96105 25.5764 6.616C26.7215 5.60574 28.1411 5.91886 29.2953 6.98507C30.6004 8.19064 30.9878 9.01881 32 11.0014C31.0047 11.1543 30.6626 12.5011 29.6673 12.654Z" fill="#2F2E41"/>
<path d="M4.00349 33.4357C4.08303 35.4589 4.24065 39.4414 4.24065 39.6446C4.24065 39.8588 7.3836 46.1101 8.74135 48.8006V48.8019C8.83795 48.9915 8.92456 49.1635 9.00125 49.3149C9.10625 49.5237 9.27137 49.6992 9.47703 49.8206C9.68268 49.9419 9.92025 50.0041 10.1616 49.9998L16.0952 49.8974C16.4214 49.8921 16.7328 49.7659 16.9643 49.5452C17.1959 49.3246 17.3298 49.0265 17.338 48.7132L17.9998 23.6358C18.002 23.5531 17.9869 23.4708 17.9555 23.3938C17.9241 23.3168 17.877 23.2466 17.8169 23.1874C17.7568 23.1281 17.685 23.081 17.6057 23.0488C17.5263 23.0167 17.4411 23 17.355 23H9.70283C9.3796 23.0001 9.06295 23.0878 8.78917 23.2528C8.51538 23.4179 8.29552 23.6537 8.15479 23.9332L4.48211 31.2323C4.13776 31.9182 3.97344 32.6747 4.00349 33.4356V33.4357Z" fill="#F94144"/>
<path d="M17.4657 46C18.9407 45.1079 20.2662 43.9899 21.3934 42.6871C24.0127 39.7471 25.6057 36.0384 25.9331 32.1178C26.2254 28.7634 25.5585 26.2701 23.951 24.7069C21.9076 22.7199 19.1262 23.0086 19.0088 23.0219L18.8843 23.036L17 24.6273L17.5332 25.2562L19.2193 23.8324C19.7354 23.8066 21.8424 23.801 23.3815 25.3035C24.7983 26.6865 25.38 28.9552 25.1107 32.0465C24.7991 35.7793 23.2862 39.3114 20.7979 42.1155C19.7245 43.3547 18.4661 44.4215 17.0672 45.2784L17.4657 46Z" fill="#F94144"/>
<path d="M6.76356 36.9681L6.70898 37.2339L16.6114 39.2677L16.666 39.002L6.76356 36.9681Z" fill="#3F3D56"/>
<path d="M13.2906 22.5809L12.6475 38.3375L12.9186 38.3486L13.5617 22.592L13.2906 22.5809Z" fill="#3F3D56"/>
<path d="M4.00407 33.1155C4.08794 35.0755 4.25415 38.9334 4.25415 39.1303C4.25415 39.3378 7.56829 45.3937 9 48L6.33132 34.3248C6.22808 33.7987 5.96835 33.3061 5.57865 32.8977C5.18895 32.4892 4.68328 32.1794 4.11339 32C4.02371 32.3663 3.98699 32.7411 4.00407 33.1155Z" fill="#3F3D56"/>
<path d="M19.4171 62.1488C19.2391 61.8994 19.1135 61.6106 19.0492 61.3027C18.985 60.9949 18.9836 60.6754 19.0452 60.3669C19.1068 60.0584 19.2299 59.7683 19.4057 59.5171C19.5816 59.2659 19.806 59.0597 20.0632 58.9129L19.6545 53.9984L22.3412 53L22.8287 59.9491C23.0268 60.435 23.0541 60.9831 22.9053 61.4894C22.7566 61.9957 22.4422 62.4251 22.0216 62.6962C21.6011 62.9674 21.1037 63.0614 20.6237 62.9605C20.1436 62.8596 19.7143 62.5708 19.4171 62.1488Z" fill="#FFB7B7"/>
<path d="M17.0117 29.9177C16.9437 29.1062 17.1736 28.2971 17.6653 27.6181C18.157 26.9391 18.8823 26.4289 19.7269 26.1679C20.4716 25.9434 21.2758 25.944 22.0201 26.1697C22.8166 26.4174 23.5076 26.8873 23.9955 27.513C24.4834 28.1387 24.7436 28.8886 24.7392 29.6565L25 56.7959L18.8344 57L17.0117 29.9177Z" fill="#CBCBCB"/>
<rect x="73" y="53.8209" width="28.0721" height="14.9356" rx="7.46781" transform="rotate(-11.7904 73 53.8209)" fill="black" fill-opacity="0.46"/>
<rect x="118.683" y="46" width="28.0721" height="15.488" rx="7.74402" fill="black" fill-opacity="0.46"/>
<rect x="162.304" y="47.601" width="28.0721" height="14.9356" rx="7.46781" transform="rotate(0.95186 162.304 47.601)" fill="black" fill-opacity="0.46"/>
<rect x="205.616" y="46.1489" width="28.0721" height="15.488" rx="7.74402" fill="black" fill-opacity="0.46"/>
<rect x="250.373" y="47.1169" width="28.0721" height="14.9356" rx="7.46781" transform="rotate(10.2134 250.373 47.1169)" fill="black" fill-opacity="0.46"/>
<rect x="327.224" y="86" width="28.0721" height="14.9356" rx="7.46781" transform="rotate(38.138 327.224 86)" fill="black" fill-opacity="0.46"/>
<rect x="296.224" y="59" width="28.0721" height="14.9356" rx="7.46781" transform="rotate(38.138 296.224 59)" fill="black" fill-opacity="0.46"/>
<rect x="360.5" y="115" width="28.0721" height="14.9356" rx="7.46781" transform="rotate(50.3536 360.5 115)" fill="black" fill-opacity="0.46"/>
<rect x="387.612" y="146.022" width="28.0721" height="14.9356" rx="7.46781" transform="rotate(76.9023 387.612 146.022)" fill="black" fill-opacity="0.46"/>
<rect x="393.411" y="184.241" width="28.0721" height="14.9356" rx="7.46781" transform="rotate(88.6439 393.411 184.241)" fill="black" fill-opacity="0.46"/>
<rect x="394.746" y="220.439" width="28.0721" height="14.9356" rx="7.46781" transform="rotate(91.9781 394.746 220.439)" fill="black" fill-opacity="0.46"/>
<rect x="394.965" y="256.016" width="28.0721" height="14.9356" rx="7.46781" transform="rotate(90.0603 394.965 256.016)" fill="black" fill-opacity="0.46"/>
<rect x="395.102" y="297.627" width="28.0721" height="14.9356" rx="7.46781" transform="rotate(92.4065 395.102 297.627)" fill="black" fill-opacity="0.46"/>
<rect x="390.817" y="335.148" width="28.0721" height="14.9356" rx="7.46781" transform="rotate(98.2687 390.817 335.148)" fill="black" fill-opacity="0.46"/>
<rect x="374.678" y="410.752" width="28.0721" height="14.9356" rx="7.46781" transform="rotate(112.492 374.678 410.752)" fill="black" fill-opacity="0.46"/>
<rect x="383.178" y="372.945" width="28.0721" height="14.9356" rx="7.46781" transform="rotate(101.373 383.178 372.945)" fill="black" fill-opacity="0.46"/>
<rect x="352.471" y="445.945" width="28.0721" height="14.9356" rx="7.46781" transform="rotate(143.757 352.471 445.945)" fill="black" fill-opacity="0.46"/>
<rect x="315.364" y="468.767" width="28.0721" height="14.9356" rx="7.46781" transform="rotate(174.549 315.364 468.767)" fill="black" fill-opacity="0.46"/>
<rect x="274.069" y="472.251" width="28.0721" height="14.9356" rx="7.46781" transform="rotate(-179.147 274.069 472.251)" fill="black" fill-opacity="0.46"/>
<rect x="234.069" y="472.251" width="28.0721" height="14.9356" rx="7.46781" transform="rotate(-179.147 234.069 472.251)" fill="black" fill-opacity="0.46"/>
<rect x="195.92" y="470.45" width="28.0721" height="14.9356" rx="7.46781" transform="rotate(173.671 195.92 470.45)" fill="black" fill-opacity="0.46"/>
</svg>
