<svg width="485" height="427" viewBox="0 0 485 427" fill="none" xmlns="http://www.w3.org/2000/svg">
<path d="M2 103.946L5.09397 105L11 94.556L6.43356 93L2 103.946Z" fill="#FFB7B7"/>
<path d="M1.44865 103L7.37443 105.054L7.37468 105.054C8.37617 105.401 9.18881 106.105 9.63385 107.011C10.0789 107.917 10.1199 108.951 9.74781 109.886L9.70221 110L0 106.637L1.44865 103Z" fill="#2F2E41"/>
<path d="M31.0005 107L33.7107 107L35 95L31 95.0003L31.0005 107Z" fill="#FFB7B7"/>
<path d="M31 106L36.4968 106C37.4258 106 38.317 106.408 38.9739 107.135C39.6308 107.861 39.9999 108.846 40 109.874V110L31.0002 110L31 106Z" fill="#2F2E41"/>
<path d="M16.5427 24.0159L17.5529 22L26.1399 26.2839L25.8874 28.0478L27.529 30.1898C27.529 30.1898 30.3072 31.7018 29.802 36.7417L29.2969 41.5295L28.6655 47.7034L33.0853 62.949L35.3584 83.1085L37 99.3621L29.0444 98.9841L21.7201 72.5247L8.8396 101L0 98.7321L12.1229 70.5088L13.6382 58.6651C13.6382 58.6651 12.628 52.3652 17.4266 48.0813L16.6689 45.8134V43.0187L14.1433 29.6858L16.5427 24.0159Z" fill="#2F2E41"/>
<path opacity="0.2" d="M16.3671 52.7999L16.0791 52.8811L21.6814 72.7439L21.9695 72.6627L16.3671 52.7999Z" fill="black"/>
<path d="M17 49H29V48H17V49Z" fill="#3F3D56"/>
<path d="M29.5 50C29.7761 50 30 49.3284 30 48.5C30 47.6716 29.7761 47 29.5 47C29.2239 47 29 47.6716 29 48.5C29 49.3284 29.2239 50 29.5 50Z" fill="#3F3D56"/>
<path d="M29.666 17.6891C31.4642 14.3997 30.2553 10.2754 26.9658 8.4772C23.6764 6.67903 19.5521 7.88793 17.7539 11.1774C15.9558 14.4668 17.1647 18.5911 20.4541 20.3893C23.7435 22.1875 27.8679 20.9785 29.666 17.6891Z" fill="#FFB7B7"/>
<path d="M13 12C16.3137 12 19 9.3137 19 6C19 2.68629 16.3137 0 13 0C9.68629 0 7 2.68629 7 6C7 9.3137 9.68629 12 13 12Z" fill="#2F2E41"/>
<path d="M6.25036 6C6.0128 6.72156 5.94327 7.47982 6.04618 8.2269C6.14908 8.97398 6.42217 9.69365 6.84822 10.3405C7.27427 10.9873 7.84403 11.5473 8.5215 11.985C9.19898 12.4227 9.96947 12.7286 10.7843 12.8835C11.5992 13.0384 12.4407 13.0388 13.2558 12.8848C14.0708 12.7308 14.8417 12.4257 15.5197 11.9887C16.1978 11.5517 16.7683 10.9924 17.1952 10.346C17.6221 9.69966 17.8961 8.98027 18 8.2333C17.5685 9.5434 16.6078 10.6589 15.3088 11.3582C14.0097 12.0576 12.4673 12.2897 10.9878 12.0085C9.50823 11.7273 8.19975 10.9533 7.32213 9.84018C6.44451 8.72709 6.06194 7.35631 6.25036 6Z" fill="#2F2E41"/>
<path d="M29.6673 12.654C29.8374 14.2937 29.5085 15.949 28.7315 17.3634C27.9545 18.7779 26.7727 19.8725 25.3694 20.4776C23.966 21.0827 22.4194 21.1646 20.9692 20.7105C19.519 20.2564 18.2462 19.2918 17.348 17.9661C16.4498 16.6403 15.9763 15.0275 16.0009 13.3775C16.0256 11.7275 16.5469 10.1324 17.4843 8.83948C18.4216 7.54654 19.7226 6.62791 21.1856 6.22592C22.6485 5.82394 24.1919 5.96105 25.5764 6.616C26.7215 5.60574 28.1411 5.91886 29.2953 6.98507C30.6004 8.19064 30.9878 9.01881 32 11.0014C31.0047 11.1543 30.6626 12.5011 29.6673 12.654Z" fill="#2F2E41"/>
<path d="M4.00349 33.4357C4.08303 35.4589 4.24065 39.4414 4.24065 39.6446C4.24065 39.8588 7.3836 46.1101 8.74135 48.8006V48.8019C8.83795 48.9915 8.92456 49.1635 9.00125 49.3149C9.10625 49.5237 9.27137 49.6992 9.47703 49.8206C9.68268 49.9419 9.92025 50.0041 10.1616 49.9998L16.0952 49.8974C16.4214 49.8921 16.7328 49.7659 16.9643 49.5452C17.1959 49.3246 17.3298 49.0265 17.338 48.7132L17.9998 23.6358C18.002 23.5531 17.9869 23.4708 17.9555 23.3938C17.9241 23.3168 17.877 23.2466 17.8169 23.1874C17.7568 23.1281 17.685 23.081 17.6057 23.0488C17.5263 23.0167 17.4411 23 17.355 23H9.70283C9.3796 23.0001 9.06295 23.0878 8.78917 23.2528C8.51538 23.4179 8.29552 23.6537 8.15479 23.9332L4.48211 31.2323C4.13776 31.9182 3.97344 32.6747 4.00349 33.4356V33.4357Z" fill="#F94144"/>
<path d="M17.4657 46C18.9407 45.1079 20.2662 43.9899 21.3934 42.6871C24.0127 39.7471 25.6057 36.0384 25.9331 32.1178C26.2254 28.7634 25.5585 26.2701 23.951 24.7069C21.9076 22.7199 19.1262 23.0086 19.0088 23.0219L18.8843 23.036L17 24.6273L17.5332 25.2562L19.2193 23.8324C19.7354 23.8066 21.8424 23.801 23.3815 25.3035C24.7983 26.6865 25.38 28.9552 25.1107 32.0465C24.7991 35.7793 23.2862 39.3114 20.7979 42.1155C19.7245 43.3547 18.4661 44.4215 17.0672 45.2784L17.4657 46Z" fill="#F94144"/>
<path d="M6.76356 36.9681L6.70898 37.2339L16.6114 39.2677L16.666 39.002L6.76356 36.9681Z" fill="#3F3D56"/>
<path d="M13.2906 22.5809L12.6475 38.3375L12.9186 38.3486L13.5617 22.592L13.2906 22.5809Z" fill="#3F3D56"/>
<path d="M4.00407 33.1155C4.08794 35.0755 4.25415 38.9334 4.25415 39.1303C4.25415 39.3378 7.56829 45.3937 9 48L6.33132 34.3248C6.22808 33.7987 5.96835 33.3061 5.57865 32.8977C5.18895 32.4892 4.68328 32.1794 4.11339 32C4.02371 32.3663 3.98699 32.7411 4.00407 33.1155Z" fill="#3F3D56"/>
<path d="M19.4171 62.1488C19.2391 61.8994 19.1135 61.6106 19.0492 61.3027C18.985 60.9949 18.9836 60.6754 19.0452 60.3669C19.1068 60.0584 19.2299 59.7683 19.4057 59.5171C19.5816 59.2659 19.806 59.0597 20.0632 58.9129L19.6545 53.9984L22.3412 53L22.8287 59.9491C23.0268 60.435 23.0541 60.9831 22.9053 61.4894C22.7566 61.9957 22.4422 62.4251 22.0216 62.6962C21.6011 62.9674 21.1037 63.0614 20.6237 62.9605C20.1436 62.8596 19.7143 62.5708 19.4171 62.1488Z" fill="#FFB7B7"/>
<path d="M17.0117 29.9177C16.9437 29.1062 17.1736 28.2971 17.6653 27.6181C18.157 26.9391 18.8823 26.4289 19.7269 26.1679C20.4716 25.9434 21.2758 25.944 22.0201 26.1697C22.8166 26.4174 23.5076 26.8873 23.9955 27.513C24.4834 28.1387 24.7436 28.8886 24.7392 29.6565L25 56.7959L18.8344 57L17.0117 29.9177Z" fill="#CBCBCB"/>
<path d="M404 38.4815C404 48.7091 395.717 57 385.5 57H348.5C338.283 57 330 48.7091 330 38.4815C330 28.2541 338.283 19.963 348.5 19.963H349.347C351.705 12.45 358.716 7 367 7C375.284 7 382.295 12.45 384.653 19.963H385.5C395.717 19.9628 404 28.2538 404 38.4815Z" fill="#AFF2D8"/>
<path d="M385.36 57H383.03H378.836C388.144 57 395.681 49.4696 395.612 40.2069C395.543 31.0172 387.876 23.6667 378.625 23.6667H373.646H369.452C368.334 23.6667 367.445 22.6882 367.607 21.5457C367.738 20.6233 368.578 19.9629 369.516 19.9629H371.838C373.183 19.9629 374.099 18.5852 373.546 17.367C371.386 12.6082 367.159 8.97689 362 7.60179C363.508 7.2108 365.089 7 366.72 7C375.066 7 382.131 12.45 384.506 19.9629H385.36C395.654 19.9629 404 28.2538 404 38.4816C404 48.7091 395.655 57 385.36 57Z" fill="#4D908E"/>
<rect x="83.2958" y="72.0146" width="27.5721" height="14.4356" rx="7.21781" transform="rotate(-11.7904 83.2958 72.0146)" fill="black" fill-opacity="0.46" stroke="white" stroke-width="0.5"/>
<rect x="172.55" y="65.855" width="27.5721" height="14.4356" rx="7.21781" transform="rotate(0.95186 172.55 65.855)" fill="black" fill-opacity="0.46" stroke="white" stroke-width="0.5"/>
<rect x="260.575" y="65.4073" width="27.5721" height="14.4356" rx="7.21781" transform="rotate(10.2134 260.575 65.4073)" fill="black" fill-opacity="0.46" stroke="white" stroke-width="0.5"/>
<rect x="337.266" y="104.351" width="27.5721" height="14.4356" rx="7.21781" transform="rotate(38.138 337.266 104.351)" fill="black" fill-opacity="0.46" stroke="white" stroke-width="0.5"/>
<rect x="305.266" y="78.351" width="27.5721" height="14.4356" rx="7.21781" transform="rotate(38.138 305.266 78.351)" fill="black" fill-opacity="0.46" stroke="white" stroke-width="0.5"/>
<rect x="368.266" y="132.351" width="27.5721" height="14.4356" rx="7.21781" transform="rotate(38.138 368.266 132.351)" fill="black" fill-opacity="0.46" stroke="white" stroke-width="0.5"/>
<rect x="397.343" y="164.301" width="27.5721" height="14.4356" rx="7.21781" transform="rotate(76.5882 397.343 164.301)" fill="black" fill-opacity="0.46" stroke="white" stroke-width="0.5"/>
<rect x="404.291" y="203.111" width="27.5721" height="14.4356" rx="7.21781" transform="rotate(93.3613 404.291 203.111)" fill="black" fill-opacity="0.46" stroke="white" stroke-width="0.5"/>
<path d="M397.133 249.974L394.784 262.898C394.071 266.82 390.314 269.422 386.392 268.709C382.47 267.996 379.868 264.239 380.581 260.317L382.93 247.392C383.643 243.47 387.401 240.869 391.323 241.581C395.245 242.294 397.846 246.052 397.133 249.974Z" fill="black" fill-opacity="0.46" stroke="white" stroke-width="0.5"/>
<rect x="385.087" y="281.184" width="27.5721" height="14.4356" rx="7.21781" transform="rotate(132.989 385.087 281.184)" fill="black" fill-opacity="0.46" stroke="white" stroke-width="0.5"/>
<rect x="357.342" y="306.482" width="27.5721" height="14.4356" rx="7.21781" transform="rotate(147.214 357.342 306.482)" fill="black" fill-opacity="0.46" stroke="white" stroke-width="0.5"/>
<rect x="326.359" y="324.956" width="27.5721" height="14.4356" rx="7.21781" transform="rotate(138.244 326.359 324.956)" fill="black" fill-opacity="0.46" stroke="white" stroke-width="0.5"/>
<rect x="300.69" y="346.872" width="27.5721" height="14.4356" rx="7.21781" transform="rotate(116.919 300.69 346.872)" fill="black" fill-opacity="0.46" stroke="white" stroke-width="0.5"/>
<rect x="128.933" y="64.25" width="27.5721" height="14.988" rx="7.49402" fill="black" fill-opacity="0.46" stroke="white" stroke-width="0.5"/>
<rect x="215.866" y="64.3989" width="27.5721" height="14.988" rx="7.49402" fill="black" fill-opacity="0.46" stroke="white" stroke-width="0.5"/>
<rect x="245" y="409.939" width="78" height="6" rx="1" transform="rotate(-25.0043 245 409.939)" fill="#F94144"/>
<rect x="256.863" y="367" width="78" height="6" rx="1" transform="rotate(45.6138 256.863 367)" fill="#F94144"/>
<path d="M457.5 219C472.688 219 485 206.688 485 191.5C485 176.312 472.688 164 457.5 164C442.312 164 430 176.312 430 191.5C430 206.688 442.312 219 457.5 219Z" fill="#90BE6D"/>
<path d="M464.762 205.337C463.808 202.31 462.729 194.411 473.283 186.466C476.982 183.68 477.362 180.651 477.027 178.601C476.393 174.705 472.574 170.987 467.298 169.13C459.697 166.453 454.758 171.816 450.79 176.123C448.966 178.103 447.243 179.974 445.669 180.554C442.443 181.743 436.543 180.22 432.961 179.037C432.728 179.443 432.554 179.85 432.326 180.43C436.126 181.659 442.642 183.277 446.221 181.956C448.148 181.246 449.908 179.336 451.947 177.122C455.794 172.945 460.156 168.212 466.769 170.541C471.523 172.214 474.949 175.469 475.497 178.835C475.882 181.203 474.787 183.432 472.332 185.282C461.018 193.8 462.232 202.451 463.28 205.775C464.661 210.16 468.627 212.976 472.499 214.569C473.311 214.163 473.195 214.047 473.834 213.64C469.401 212.313 466.223 209.975 464.762 205.337Z" fill="#80D1F2"/>
<path d="M453.946 209.402C448.062 209.402 442.961 208.062 440.348 204.21C436.593 198.675 437.961 189.207 443.673 181.185L446.604 181.824C440.704 190.109 438.5 199.049 441.324 203.211C447.916 212.932 472.871 204.988 482.266 201.997L483.065 201.742L482.61 202.813L482.362 203.529C476.286 205.464 464.068 209.402 453.946 209.402Z" fill="#80D1F2"/>
<path d="M447.715 191.04C445.042 191.04 442.875 193.208 442.875 195.882C442.875 199.403 447.443 204.111 447.855 204.111C448.265 204.111 452.557 198.989 452.557 195.882C452.556 193.208 450.389 191.04 447.715 191.04ZM447.692 197.501C446.642 197.501 445.792 196.673 445.792 195.651C445.792 194.63 446.642 193.803 447.692 193.803C448.741 193.803 449.592 194.63 449.592 195.651C449.592 196.673 448.741 197.501 447.692 197.501Z" fill="#CC3432"/>
<path d="M447.855 204.329C447.247 204.329 442.657 199.466 442.657 195.883C442.657 193.093 444.927 190.823 447.715 190.823C450.505 190.823 452.773 193.093 452.773 195.883C452.774 199.027 448.459 204.329 447.855 204.329ZM447.716 191.257C445.166 191.257 443.092 193.331 443.092 195.882C443.092 199.174 447.171 203.496 447.85 203.878C448.499 203.457 452.34 198.785 452.34 195.882C452.339 193.332 450.265 191.257 447.716 191.257ZM447.693 197.718C446.525 197.718 445.576 196.791 445.576 195.651C445.576 194.512 446.526 193.586 447.693 193.586C448.859 193.586 449.809 194.512 449.809 195.651C449.809 196.791 448.86 197.718 447.693 197.718ZM447.693 194.02C446.765 194.02 446.01 194.751 446.01 195.651C446.01 196.551 446.765 197.284 447.693 197.284C448.621 197.284 449.375 196.551 449.375 195.651C449.375 194.751 448.621 194.02 447.693 194.02Z" fill="#BA2E2D"/>
<path d="M453.62 186.158L459.154 177.212L458.186 175.715C458.056 175.514 458.114 175.247 458.314 175.117C458.515 174.988 458.783 175.045 458.912 175.246L459.682 176.437L460.452 175.246C460.582 175.045 460.85 174.988 461.05 175.117C461.25 175.247 461.308 175.514 461.179 175.715L460.211 177.213L465.745 186.159C465.869 186.358 465.876 186.607 465.762 186.812C465.649 187.018 465.432 187.143 465.198 187.143H462.748C462.527 187.143 462.321 187.031 462.201 186.845L460.12 183.597C460.025 183.447 459.86 183.357 459.682 183.357C459.505 183.357 459.34 183.447 459.244 183.597L457.164 186.845C457.045 187.031 456.839 187.144 456.618 187.144H454.167C453.932 187.144 453.716 187.018 453.602 186.812C453.489 186.606 453.495 186.357 453.62 186.158Z" fill="black" fill-opacity="0.68"/>
</svg>
