<svg width="65" height="65" viewBox="0 0 65 65" fill="none" xmlns="http://www.w3.org/2000/svg">
<g clip-path="url(#clip0_17_66)">
<path d="M46.645 13.8163C46.645 9.44218 40.4064 5.89618 32.7105 5.89618C25.0146 5.89618 18.7759 9.44218 18.7759 13.8163V27.5682H46.6451V13.8163H46.645Z" fill="#4D908E" fill-opacity="0.56"/>
<path d="M30.2574 57.2584C30.2574 59.4256 37.97 61.1823 47.4839 61.1823C56.9978 61.1823 64.7104 59.4256 64.7104 57.2584V33.5242C64.7104 30.9872 62.6538 28.9304 60.1166 28.9304C57.5796 28.9304 55.5229 26.8738 55.5229 24.3367V4.23907H43.8471V19.9344C43.8471 22.4714 41.7905 24.5282 39.2534 24.5282H30.5696C28.0326 24.5282 30.2573 26.5848 30.2573 29.1219V57.2586H30.2574V57.2584Z" fill="#F94144"/>
<path opacity="0.1" d="M38.7316 57.2584V29.1218C38.7316 27.4194 38.207 25.8376 37.3119 24.5282H30.5701C28.0331 24.5282 30.2578 26.5848 30.2578 29.1218V57.2586C30.2578 58.5732 33.0966 59.7368 37.4536 60.4488C38.2219 59.6182 38.7316 58.5738 38.7316 57.2584Z" fill="black"/>
<path d="M35.1634 57.2584C35.1634 59.4256 27.4508 61.1823 17.9369 61.1823C8.42307 61.1823 0.710449 59.4254 0.710449 57.2584V33.5242C0.710449 30.9872 2.76707 28.9304 5.3042 28.9304C7.8412 28.9304 9.89795 26.8738 9.89795 24.3367V4.23907H21.5737V19.9344C21.5737 22.4714 23.6303 24.5282 26.1674 24.5282H30.5698C33.1068 24.5282 35.1636 26.5848 35.1636 29.1219V57.2586H35.1634V57.2584Z" fill="#F94144"/>
<path d="M64.7097 33.4246H0.710449V38.5622H64.7097V33.4246Z" fill="#8E451B"/>
<path d="M64.7097 47.8384H0.710449V52.9761H64.7097V47.8384Z" fill="#8E451B"/>
<path d="M21.5737 11.5896H9.89844V18.2971H21.5737V11.5896Z" fill="#8E451B"/>
<path d="M55.519 11.5896H43.8438V18.2971H55.519V11.5896Z" fill="#8E451B"/>
<path d="M39.5969 32.0274H26.6016V39.9608H39.5969V32.0274Z" fill="#4D908E"/>
<path d="M39.5969 46.4413H26.6016V54.3747H39.5969V46.4413Z" fill="#4D908E"/>
<path opacity="0.1" d="M6.41895 57.2584V33.5241C6.41895 30.9871 8.47557 28.9304 11.0127 28.9304C13.5497 28.9304 15.6064 26.8737 15.6064 24.3367V4.23907H9.89795V24.3367C9.89795 26.8737 7.84132 28.9304 5.3042 28.9304C2.76707 28.9304 0.710449 30.9871 0.710449 33.5241V57.2584C0.710449 59.4256 8.42307 61.1823 17.9369 61.1823C18.9094 61.1823 19.8627 61.1636 20.7912 61.1283C12.6359 60.8186 6.41895 59.2039 6.41895 57.2584Z" fill="black"/>
</g>
<defs>
<clipPath id="clip0_17_66">
<rect width="64" height="64" fill="white" transform="translate(0.710449 0.710693)"/>
</clipPath>
</defs>
</svg>
