<svg width="111" height="109" viewBox="0 0 111 109" fill="none" xmlns="http://www.w3.org/2000/svg">
<path d="M84.0234 74.1356L81.5781 71.4857C81.1163 70.9853 81.0266 70.2457 81.3552 69.6495L82.5449 67.4905C82.8735 66.8942 83.5469 66.575 84.2165 66.6981L87.7626 67.3505C87.9298 67.3813 88.091 67.4388 88.2399 67.521L92.1715 69.6876C92.5388 69.89 92.8109 70.2303 92.9275 70.6332C93.0442 71.0363 92.996 71.469 92.7934 71.8364L90.5029 75.9929C90.3004 76.3602 89.9602 76.6324 89.5573 76.749C89.1542 76.8656 88.7214 76.8174 88.354 76.6148L84.4224 74.4482C84.2734 74.3661 84.1387 74.2607 84.0234 74.1356Z" fill="#F8961E"/>
<path d="M29.6234 39.7676C29.7579 39.7284 29.9024 39.7443 30.0251 39.8119L82.1689 68.4602C82.4213 68.6021 82.5122 68.9208 82.3728 69.1745C82.2334 69.4283 81.9156 69.5224 81.6605 69.3856L29.5166 40.7374C29.3294 40.6345 29.2226 40.4291 29.246 40.2168C29.2694 40.0046 29.4183 39.8273 29.6234 39.7676Z" fill="#8E451B"/>
<path d="M27.2118 34.8826L29.682 37.5094C30.1484 38.0054 30.2452 38.7441 29.9223 39.3436L28.7529 41.5137C28.4299 42.113 27.7596 42.4386 27.0889 42.3218L23.5368 41.7028C23.3693 41.6737 23.2075 41.6177 23.0579 41.5369L19.1061 39.4075C18.337 38.993 18.0494 38.0335 18.4639 37.2646L20.715 33.0868C21.1294 32.3176 22.089 32.0301 22.8579 32.4446L26.8097 34.574C26.9596 34.6545 27.0954 34.7588 27.2118 34.8826Z" fill="#F8961E"/>
<path d="M50.4248 88.6124L51.7397 85.255C51.988 84.621 52.614 84.2171 53.2939 84.2521L55.7557 84.3788C56.4357 84.4138 57.017 84.88 57.1989 85.5361L58.1617 89.0108C58.2071 89.1746 58.2259 89.3447 58.217 89.5145L57.9863 93.9976C57.9647 94.4165 57.7776 94.8099 57.4661 95.0909C57.1545 95.372 56.7442 95.5178 56.3252 95.4961L51.5857 95.2521C51.1668 95.2306 50.7734 95.0434 50.4924 94.732C50.2113 94.4204 50.0655 94.0101 50.0872 93.5911L50.318 89.108C50.3267 88.9381 50.3627 88.7708 50.4248 88.6124Z" fill="#F8961E"/>
<path d="M57.5653 24.6629C57.6593 24.7667 57.7082 24.9036 57.701 25.0436L54.7192 84.4642C54.7018 84.7531 54.4549 84.9742 54.1657 84.9597C53.8766 84.9452 53.653 84.7005 53.6646 84.4112L56.6463 24.9906C56.657 24.7772 56.7952 24.5914 56.9963 24.5197C57.1974 24.448 57.422 24.5045 57.5653 24.6629Z" fill="#8E451B"/>
<path d="M60.9053 20.359L59.6221 23.7287C59.3798 24.365 58.7577 24.7748 58.0773 24.7464L55.6144 24.6429C54.9342 24.6143 54.3484 24.1536 54.1604 23.4993L53.1648 20.0338C53.1179 19.8705 53.0976 19.7005 53.1048 19.5306L53.2933 15.0455C53.3299 14.1726 54.0674 13.4947 54.9401 13.5315L59.6816 13.7306C60.5545 13.7672 61.2325 14.5046 61.1957 15.3774L61.0072 19.8625C61.0003 20.0325 60.9658 20.2002 60.9053 20.359Z" fill="#F8961E"/>
</svg>
